<?xml version="1.0" standalone="no"?>
<!DOCTYPE svg PUBLIC "-//W3C//DTD SVG 1.1//EN" "http://www.w3.org/Graphics/SVG/1.1/DTD/svg11.dtd" >
<svg xmlns="http://www.w3.org/2000/svg">
<metadata>Generated by IcoMoon</metadata>
<defs>
<font id="icomoon" horiz-adv-x="1024">
<font-face units-per-em="1024" ascent="960" descent="-64" />
<missing-glyph horiz-adv-x="1024" />
<glyph unicode="&#x20;" horiz-adv-x="512" d="" />
<glyph unicode="&#xe900;" glyph-name="plus" d="M614.4 550.4h409.6v-204.8h-409.6v-409.6h-204.8v409.6h-409.6v204.8h409.6v409.6h204.8v-409.6z" />
<glyph unicode="&#xe901;" glyph-name="x" d="M546.182 470.967l433.932-435.883-59.246-59.002-433.64 435.639-416.768-418.621-59.246 58.953 417.012 418.914-400.335 402.188 59.197 59.002 400.14-401.944 416.914 418.865 59.294-59.002-417.256-419.109z" />
<glyph unicode="&#xe902;" glyph-name="delete" horiz-adv-x="975" d="M689.786 798.598h285.452v-79.482h-86.796v-0.146h-89.624v0.146h-621.617v-698.904h621.617v617.082h89.624v-701.294h-803.060v783.116h-85.382v79.482h285.452v161.402h404.334v-161.402zM607.817 798.598v81.92h-240.396v-81.92h240.396zM443.197 612.669h89.722v-470.406h-89.722v470.406zM620.837 612.669h89.527v-470.406h-89.527v470.406zM265.606 612.669h89.576v-470.406h-89.576v470.406z" />
<glyph unicode="&#xe903;" glyph-name="edit" d="M841.728 893.696l182.272-177.152-508.314-502.118-214.682-26.829 27.597 211.968 513.075 494.131zM412.16 359.68l-9.523-73.216 71.526 8.909 425.882 420.659-58.624 57.037-429.261-413.389zM792.32 363.878l88.064 84.122v-512h-880.384v1024h793.754l-88.73-85.453h-616.96v-853.043h704.256v342.426z" />
<glyph unicode="&#xe904;" glyph-name="arrow-last" horiz-adv-x="866" d="M0 154.191l353.595 333.194-353.595 330.831 128 141.785 502.154-473.324-502.154-471.906-128 139.422zM630.154 937.472h196.923v-945.231h-196.923v945.231z" />
<glyph unicode="&#xe905;" glyph-name="arrow-left" horiz-adv-x="630" d="M630.154 764.337l-127.921 139.422-502.154-471.906 502.154-473.324 128 141.785-353.516 330.831z" />
<glyph unicode="&#xe906;" glyph-name="arrow-right" horiz-adv-x="630" d="M0 97.95l127.921-139.422 502.154 471.906-502.154 473.324-128-141.785 353.516-330.831z" />
<glyph unicode="&#xe907;" glyph-name="arrow-start" horiz-adv-x="866" d="M827.077 154.191l-353.595 333.194 353.595 330.831-128 141.785-502.154-473.324 502.154-471.906 128 139.422zM196.923 937.472h-196.923v-945.231h196.923v945.231z" />
<glyph unicode="&#xe908;" d="M0 960h1024v-1024h-1024z" />
<glyph unicode="&#xe909;" d="M442.368 355.738l256.512 364.134 79.718-56.166-310.221-440.422-226.458 144.998 52.582 82.125z" />
<glyph unicode="&#xe90a;" glyph-name="checkbox" d="M25.6 934.4h972.8v-972.8h-972.8z" />
<glyph unicode="&#xe90b;" glyph-name="dropdown" horiz-adv-x="439" d="M219.429 897.317l219.429-386.633h-438.857zM219.429-64l219.429 386.633h-438.857z" />
<glyph unicode="&#xe90c;" glyph-name="search" horiz-adv-x="1075" d="M689.51 343.296l342.989-320.87-62.72-68.454-344.064 323.584c-65.408-53.318-149.787-85.618-241.711-85.618-212.077 0-384 171.923-384 384s171.923 384 384 384c212.077 0 384-171.923 384-384 0-87.868-29.513-168.844-79.166-233.554l0.673 0.913zM384 284.16c161.179 0 291.84 130.661 291.84 291.84s-130.661 291.84-291.84 291.84v0c-161.179 0-291.84-130.661-291.84-291.84s130.661-291.84 291.84-291.84v0z" />
<glyph unicode="&#xe90d;" horiz-adv-x="683" d="M100.693 362.667l-100.693-104.021 340.821-322.645 341.845 322.645-102.4 104.021-238.933-225.536z" />
<glyph unicode="&#xe90e;" horiz-adv-x="683" d="M100.693 533.333l-100.693 104.021 340.821 322.645 341.845-322.645-102.4-104.021-238.933 225.536z" />
<glyph unicode="&#xe90f;" horiz-adv-x="683" d="M100.693 362.667l-100.693-104.021 340.821-322.645 341.845 322.645-102.4 104.021-238.933-225.536z" />
<glyph unicode="&#xe910;" horiz-adv-x="683" d="M100.693 533.333l-100.693 104.021 340.821 322.645 341.845-322.645-102.4-104.021-238.933 225.536z" />
<glyph unicode="&#xe911;" glyph-name="sort" horiz-adv-x="683" d="M100.693 362.667l-100.693-104.021 340.821-322.645 341.845 322.645-102.4 104.021-238.933-225.536zM100.693 533.333l-100.693 104.021 340.821 322.645 341.845-322.645-102.4-104.021-238.933 225.536z" />
<glyph unicode="&#xe912;" glyph-name="reset" horiz-adv-x="975" d="M726.455 607.11l99.279 101.522c-78.019 103.717-199.387 165.157-327.387 165.157-228.498 0-414.427-191-414.427-425.789s185.929-425.74 414.427-425.74c161.597 0 309.736 97.621 377.125 248.783l76.166-35.84c-80.994-181.687-258.926-299.203-453.291-299.203-274.871 0-498.347 229.766-498.347 512 0 282.185 223.476 512 498.347 512 150.235 0 291.596-70.51 385.56-190.171l91.331 95.378v-258.048h-248.783z" />
<glyph unicode="&#xe913;" d="M1024 448c0-282.77-229.23-512-512-512s-512 229.23-512 512c0 282.77 229.23 512 512 512s512-229.23 512-512z" />
<glyph unicode="&#xe914;" d="M0 960h1024v-1024h-1024z" />
<glyph unicode="&#xe915;" d="M442.368 355.738l256.512 364.134 79.718-56.166-310.221-440.422-226.458 144.998 52.582 82.125z" />
<glyph unicode="&#xe916;" d="M-102.4 1062.4h1228.8v-1228.8h-1228.8z" />
<glyph unicode="&#xe917;" d="M723.2 285.542l-172.339 162.458 172.339 161.28-62.413 69.12-244.787-230.707 244.787-230.093 62.413 67.942zM416 667.443h-96v-460.8h96v460.8z" />
<glyph unicode="&#xe918;" d="M1024 448c0-282.77-229.23-512-512-512s-512 229.23-512 512c0 282.77 229.23 512 512 512s512-229.23 512-512z" />
<glyph unicode="&#xe919;" d="M-102.4 1062.4h1228.8v-1228.8h-1228.8z" />
<glyph unicode="&#xe91a;" d="M723.2 285.542l-172.339 162.458 172.339 161.28-62.413 69.12-244.787-230.707 244.787-230.093 62.413 67.942zM416 667.443h-96v-460.8h96v460.8z" />
<glyph unicode="&#xe91b;" d="M1024 448c0-282.77-229.23-512-512-512s-512 229.23-512 512c0 282.77 229.23 512 512 512s512-229.23 512-512z" />
<glyph unicode="&#xe91c;" d="M-102.4 1062.4h1228.8v-1228.8h-1228.8z" />
<glyph unicode="&#xe91d;" d="M723.2 285.542l-172.339 162.458 172.339 161.28-62.413 69.12-244.787-230.707 244.787-230.093 62.413 67.942zM416 667.443h-96v-460.8h96v460.8z" />
<glyph unicode="&#xe91e;" d="M0 960h1024v-1024h-1024z" />
<glyph unicode="&#xe91f;" d="M762.88 470.162v-323.365c-49.518-21.358-127.122-35.035-196.242-35.035-228.718 0-313.198 116.955-313.198 331.995 0 217.6 94.72 331.045 319.122 331.045 61.44 0 130.56-10.24 181.76-28.16l-17.042-148.48c-45.202 16.238-104.082 25.6-154.478 25.6-116.005 0-141.605-39.205-141.605-178.322 0-145.92 27.282-180.882 120.32-180.882 14.482 0 28.965 0.805 42.642 3.365v202.24h158.72z" />
<glyph unicode="&#xe920;" glyph-name="sync" horiz-adv-x="838" d="M418.909 820.364v139.636l-197.818-186.182 197.818-186.182v139.636c163.188 0 296.727-125.673 296.727-279.273 0-46.545-14.848-93.091-34.63-130.327l74.193-69.818c34.63 60.509 59.345 125.673 59.345 200.145 0 204.8-178.036 372.364-395.636 372.364zM418.909 168.727c-163.188 0-296.727 125.673-296.727 279.273 0 46.545 14.848 93.091 34.63 130.327l-74.193 69.818c-34.63-60.509-59.345-125.673-59.345-200.145 0-204.8 178.036-372.364 395.636-372.364v-139.636l197.818 186.182-197.818 186.182v-139.636z" />
<glyph unicode="&#xe921;" glyph-name="delete-disabled" horiz-adv-x="975" d="M689.786 798.598h285.452v-79.482h-86.796v-0.146h-89.624v0.146h-621.617v-698.904h621.617v617.082h89.624v-701.294h-803.060v783.116h-85.382v79.482h285.452v161.402h404.334v-161.402zM607.817 798.598v81.92h-240.396v-81.92h240.396zM443.197 612.669h89.722v-470.406h-89.722v470.406zM620.837 612.669h89.527v-470.406h-89.527v470.406zM265.606 612.669h89.576v-470.406h-89.576v470.406z" />
<glyph unicode="&#xe922;" d="M1024 448c0-282.77-229.23-512-512-512s-512 229.23-512 512c0 282.77 229.23 512 512 512s512-229.23 512-512z" />
<glyph unicode="&#xe923;" d="M-102.4 1062.4h1228.8v-1228.8h-1228.8z" />
<glyph unicode="&#xe924;" d="M320 285.542l172.339 162.458-172.339 161.28 62.413 69.12 244.787-230.707-244.787-230.093-62.413 67.942zM627.2 667.443h96v-460.8h-96v460.8z" />
<glyph unicode="&#xe925;" d="M1024 448c0-282.77-229.23-512-512-512s-512 229.23-512 512c0 282.77 229.23 512 512 512s512-229.23 512-512z" />
<glyph unicode="&#xe926;" d="M-102.4 1062.4h1228.8v-1228.8h-1228.8z" />
<glyph unicode="&#xe927;" d="M320 285.542l172.339 162.458-172.339 161.28 62.413 69.12 244.787-230.707-244.787-230.093-62.413 67.942zM627.2 667.443h96v-460.8h-96v460.8z" />
<glyph unicode="&#xe928;" d="M1024 448c0-282.77-229.23-512-512-512s-512 229.23-512 512c0 282.77 229.23 512 512 512s512-229.23 512-512z" />
<glyph unicode="&#xe929;" d="M-102.4 1062.4h1228.8v-1228.8h-1228.8z" />
<glyph unicode="&#xe92a;" d="M320 285.542l172.339 162.458-172.339 161.28 62.413 69.12 244.787-230.707-244.787-230.093-62.413 67.942zM627.2 667.443h96v-460.8h-96v460.8z" />
<glyph unicode="&#xe92b;" d="M0 960h1024v-1024h-1024z" />
<glyph unicode="&#xe92c;" d="M477.769 276.846h248.393l-3.511-157.989h-430.080v658.286h185.198z" />
<glyph unicode="&#xe92d;" d="M0 779.294h843.294v-843.294h-843.294z" />
<glyph unicode="&#xe92e;" d="M393.457 216.696h204.559l-2.891-130.108h-354.184v542.118h152.516z" />
<glyph unicode="&#xe92f;" d="M1024 448c0-282.77-229.23-512-512-512s-512 229.23-512 512c0 282.77 229.23 512 512 512s512-229.23 512-512z" />
<glyph unicode="&#xe930;" d="M-102.4 1062.4h1228.8v-1228.8h-1228.8z" />
<glyph unicode="&#xe931;" d="M409.6 296.499l62.464-67.942 244.736 230.093-244.736 230.707-62.464-69.12 172.39-161.28z" />
<glyph unicode="&#xe932;" d="M1024 448c0-282.77-229.23-512-512-512s-512 229.23-512 512c0 282.77 229.23 512 512 512s512-229.23 512-512z" />
<glyph unicode="&#xe933;" d="M-102.4 1062.4h1228.8v-1228.8h-1228.8z" />
<glyph unicode="&#xe934;" d="M409.6 296.499l62.464-67.942 244.736 230.093-244.736 230.707-62.464-69.12 172.39-161.28z" />
<glyph unicode="&#xe935;" d="M1024 448c0-282.77-229.23-512-512-512s-512 229.23-512 512c0 282.77 229.23 512 512 512s512-229.23 512-512z" />
<glyph unicode="&#xe936;" d="M-102.4 1062.4h1228.8v-1228.8h-1228.8z" />
<glyph unicode="&#xe937;" d="M409.6 296.499l62.464-67.942 244.736 230.093-244.736 230.707-62.464-69.12 172.39-161.28z" />
<glyph unicode="&#xe938;" d="M1024 448c0-282.77-229.23-512-512-512s-512 229.23-512 512c0 282.77 229.23 512 512 512s512-229.23 512-512z" />
<glyph unicode="&#xe939;" d="M-102.4 1062.4h1228.8v-1228.8h-1228.8z" />
<glyph unicode="&#xe93a;" d="M614.4 621.414l-62.464 67.942-244.736-230.093 244.736-230.707 62.464 69.12-172.39 161.28z" />
<glyph unicode="&#xe93b;" d="M1024 448c0-282.77-229.23-512-512-512s-512 229.23-512 512c0 282.77 229.23 512 512 512s512-229.23 512-512z" />
<glyph unicode="&#xe93c;" d="M-102.4 1062.4h1228.8v-1228.8h-1228.8z" />
<glyph unicode="&#xe93d;" d="M614.4 621.414l-62.464 67.942-244.736-230.093 244.736-230.707 62.464 69.12-172.39 161.28z" />
<glyph unicode="&#xe93e;" d="M1024 448c0-282.77-229.23-512-512-512s-512 229.23-512 512c0 282.77 229.23 512 512 512s512-229.23 512-512z" />
<glyph unicode="&#xe93f;" d="M-102.4 1062.4h1228.8v-1228.8h-1228.8z" />
<glyph unicode="&#xe940;" d="M614.4 621.414l-62.464 67.942-244.736-230.093 244.736-230.707 62.464 69.12-172.39 161.28z" />
<glyph unicode="&#xe941;" d="M0 960h1024v-1024h-1024z" />
<glyph unicode="&#xe942;" d="M767.561 560.64c0-85.358-34.962-150.162-96.402-174.958l139.118-257.682h-208.311l-93.842 222.72h-64.805v-222.72h-178.322v640h244.005c171.52 0 258.56-64 258.56-207.36zM581.559 553.838c0 56.32-17.92 71.68-70.802 71.68h-67.511v-146.798h65.682c52.955 0 72.558 12.8 72.558 75.118z" />
<glyph unicode="&#xe943;" d="M0 960h1024v-1024h-1024z" />
<glyph unicode="&#xe944;" d="M767.561 560.64c0-85.358-34.962-150.162-96.402-174.958l139.118-257.682h-208.311l-93.842 222.72h-64.805v-222.72h-178.322v640h244.005c171.52 0 258.56-64 258.56-207.36zM581.559 553.838c0 56.32-17.92 71.68-70.802 71.68h-67.511v-146.798h65.682c52.955 0 72.558 12.8 72.558 75.118z" />
<glyph unicode="&#xe945;" d="M972.8 448c0-254.493-206.307-460.8-460.8-460.8s-460.8 206.307-460.8 460.8c0 254.493 206.307 460.8 460.8 460.8s460.8-206.307 460.8-460.8z" />
<glyph unicode="&#xe946;" d="M1006.933 448c0-273.344-221.589-494.933-494.933-494.933s-494.933 221.589-494.933 494.933c0 273.344 221.589 494.933 494.933 494.933s494.933-221.589 494.933-494.933z" />
<glyph unicode="&#xe947;" d="M708.676 577.434c4.996-4.516 8.122-11.021 8.122-18.255 0-6.839-2.793-13.025-7.301-17.48l-0.104-0.104-224.836-222.959c-4.552-4.434-10.778-7.169-17.642-7.169-6.332 0-12.12 2.327-16.557 6.172l0.032-0.027-134.554 117.316c-5.299 4.535-8.636 11.231-8.636 18.705 0 6.6 2.601 12.592 6.835 17.007l-0.008-0.009 0.102 0.137c4.964 5.083 11.886 8.236 19.544 8.236 6.816 0 13.049-2.497 17.833-6.627l-0.035 0.030 108.271-94.413c3.277-2.867 8.329-2.731 11.401 0.341l200.158 198.451c4.915 4.79 11.638 7.744 19.052 7.744 7.063 0 13.499-2.681 18.347-7.082l-0.023 0.020z" />
<glyph unicode="&#xe948;" glyph-name="path" horiz-adv-x="1536" d="M1505.536 933.376c18.736-16.936 30.459-41.328 30.459-68.458 0-25.645-10.474-48.843-27.378-65.55l-0.393-0.393-843.136-836.096c-17.069-16.628-40.416-26.883-66.158-26.883-23.744 0-45.451 8.725-62.088 23.144l0.118-0.1-504.576 439.936c-19.871 17.008-32.384 42.115-32.384 70.145 0 24.749 9.755 47.219 25.631 63.776l-0.031-0.032 0.384 0.512c18.614 19.062 44.571 30.884 73.289 30.884 25.56 0 48.933-9.365 66.875-24.851l-0.132 0.111 406.144-354.048c12.288-10.752 31.232-10.24 42.752 1.28l750.464 744.192c18.43 17.962 43.643 29.040 71.443 29.040 26.486 0 50.623-10.055 68.802-26.557l-0.085 0.076z" />
<glyph unicode="&#xe949;" d="M0 960h1024v-1024h-1024z" />
<glyph unicode="&#xe94a;" d="M762.88 470.162v-323.365c-49.518-21.358-127.122-35.035-196.242-35.035-228.718 0-313.198 116.955-313.198 331.995 0 217.6 94.72 331.045 319.122 331.045 61.44 0 130.56-10.24 181.76-28.16l-17.042-148.48c-45.202 16.238-104.082 25.6-154.478 25.6-116.005 0-141.605-39.205-141.605-178.322 0-145.92 27.282-180.882 120.32-180.882 14.482 0 28.965 0.805 42.642 3.365v202.24h158.72z" />
<glyph unicode="&#xe94b;" glyph-name="edit-disabled" d="M841.728 893.696l182.272-177.152-508.314-502.118-214.682-26.829 27.597 211.968 513.075 494.131zM412.16 359.68l-9.523-73.216 71.526 8.909 425.882 420.659-58.624 57.037-429.261-413.389zM792.32 363.878l88.064 84.122v-512h-880.384v1024h793.754l-88.73-85.453h-616.96v-853.043h704.256v342.426z" />
<glyph unicode="&#xe94c;" glyph-name="remove_disabled" d="M546.182 470.967l433.932-435.883-59.246-59.002-433.64 435.639-416.768-418.621-59.246 58.953 417.012 418.914-400.335 402.188 59.197 59.002 400.14-401.944 416.914 418.865 59.294-59.002-417.256-419.109z" />
<glyph unicode="&#xe94d;" glyph-name="section-close" horiz-adv-x="1843" d="M1715.2-64l128 147.456-925.389 876.544-917.811-876.851 128.614-146.842 789.811 754.483z" />
<glyph unicode="&#xe94e;" glyph-name="section-open" horiz-adv-x="1843" d="M1715.2 960l128-147.456-925.389-876.544-917.811 876.851 128.614 146.842 789.811-754.483z" />
<glyph unicode="&#xe94f;" glyph-name="order" horiz-adv-x="1843" d="M0 960h1843.2v-204.8h-1843.2v204.8zM0 550.4h1843.2v-204.8h-1843.2v204.8zM0 140.8h1843.2v-204.8h-1843.2v204.8z" />
<glyph unicode="&#xe950;" glyph-name="translation" d="M472.576 24.73v383.898h-156.672c8.55-193.69 78.848-344.678 156.672-383.898zM551.424 24.73c77.824 39.219 148.122 190.208 156.672 383.898h-156.672v-383.898zM472.576 871.27c-77.824-39.219-148.122-190.208-156.672-383.898h156.672v383.898zM551.424 871.27v-383.898h156.672c-8.55 193.69-78.848 344.678-156.672 383.898zM80.538 487.373h156.57c5.888 143.974 43.827 271.258 100.608 357.376-117.67-52.75-206.070-152.911-241.869-275.509l-0.768-3.070h-81.408c53.402 225.792 256.256 393.83 498.33 393.83 282.778 0 512-229.222 512-512s-229.222-512-512-512-512 229.222-512 512c0 13.261 0.512 26.368 1.536 39.424h79.002zM80.538 408.627c15.075-160.197 115.306-293.841 254.434-356.276l2.743-1.1c-56.781 86.118-94.72 213.402-100.608 357.376h-156.57zM943.462 487.373c-15.075 160.197-115.306 293.841-254.434 356.276l-2.743 1.1c56.781-86.118 94.72-213.402 100.608-357.376h156.57zM943.462 408.627h-156.57c-5.888-143.974-43.827-271.258-100.608-357.376 141.871 63.535 242.102 197.179 257.046 355.643l0.132 1.733z" />
<glyph unicode="&#xe951;" glyph-name="preview" horiz-adv-x="1707" d="M93.269 563.883c21.845-29.781 56.747-74.411 106.837-137.045l0.939 0.768c203.947-233.301 420.181-345.344 652.288-345.344 238.763 0 460.8 118.613 669.867 365.739-209.067 247.125-431.104 365.739-669.867 365.739-207.36 0-402.091-89.515-586.752-274.944-25.736 33.352-53.403 72.343-79.599 112.382l-4.454 7.255c206.080 201.045 429.653 301.568 670.805 301.568 314.197 0 598.613-170.667 853.333-512-254.72-341.333-539.136-512-853.333-512s-598.613 170.667-853.333 512c30.72 41.131 61.781 79.701 93.269 115.883zM853.333 228.523c-117.76 0-213.333 98.304-213.333 219.477s95.573 219.392 213.333 219.392 213.333-98.133 213.333-219.392c0-121.173-95.573-219.392-213.333-219.392zM853.333 374.869c39.253 0 71.083 32.768 71.083 73.131 0.005 0.307 0.007 0.669 0.007 1.031 0 39.466-31.706 71.527-71.036 72.099l-0.054 0.001c-39.384-0.573-71.090-32.634-71.090-72.099 0-0.363 0.003-0.725 0.008-1.086l-0.001 0.055c0-40.363 31.829-73.131 71.083-73.131z" />
<glyph unicode="&#xe952;" d="M999.629 448c0-269.31-218.319-487.629-487.629-487.629s-487.629 218.319-487.629 487.629c0 269.31 218.319 487.629 487.629 487.629s487.629-218.319 487.629-487.629z" />
<glyph unicode="&#xe953;" d="M716.8 448c0-113.108-91.692-204.8-204.8-204.8s-204.8 91.692-204.8 204.8c0 113.108 91.692 204.8 204.8 204.8s204.8-91.692 204.8-204.8z" />
<glyph unicode="&#xe954;" d="M1024 448c0-282.77-229.23-512-512-512s-512 229.23-512 512c0 282.77 229.23 512 512 512s512-229.23 512-512z" />
<glyph unicode="&#xe955;" d="M716.8 448c0-113.108-91.692-204.8-204.8-204.8s-204.8 91.692-204.8 204.8c0 113.108 91.692 204.8 204.8 204.8s204.8-91.692 204.8-204.8z" />
<glyph unicode="&#xe956;" d="M1024 448c0-282.77-229.23-512-512-512s-512 229.23-512 512c0 282.77 229.23 512 512 512s512-229.23 512-512z" />
<glyph unicode="&#xe957;" d="M716.8 448c0-113.108-91.692-204.8-204.8-204.8s-204.8 91.692-204.8 204.8c0 113.108 91.692 204.8 204.8 204.8s204.8-91.692 204.8-204.8z" />
<glyph unicode="&#xe958;" glyph-name="checkbox-read-only" d="M0 960h1024v-1024h-1024z" />
<glyph unicode="&#xe959;" glyph-name="tooltip" d="M83.866 728.883l66.714-54.016c-41.094-64.41-65.498-142.932-65.498-227.154 0-235.632 191.018-426.65 426.65-426.65s426.65 191.018 426.65 426.65c0 235.632-191.018 426.65-426.65 426.65-121.357 0-230.88-50.668-308.568-132.004l-0.155-0.164-66.509 53.914c93.561 100.929 226.852 163.892 374.849 163.892 0.229 0 0.459 0 0.688 0h-0.036c282.778 0 512-229.222 512-512s-229.222-512-512-512-512 229.222-512 512c0 103.731 30.822 200.243 83.866 280.883zM467.149 277.197h89.6v-85.197h-89.6v85.197zM686.182 573.235c22.886-90.419-34.714-181.658-129.434-204.902v-48.538h-89.6v89.856c0 20.992 17.869 37.888 39.885 37.888 45.414-1.485 85.35 28.416 94.515 70.758 4.198 47.053-32.512 88.422-81.971 92.416s-92.979-30.874-97.178-77.926h-89.6c-0.41 79.053 56.525 148.070 137.421 166.502 96.256 21.914 192.922-34.509 215.962-126.054z" />
<glyph unicode="&#xe95a;" d="M0 960h1024v-1024h-1024z" />
<glyph unicode="&#xe95b;" d="M547.913 465.554v-301.714c-45.056-20.919-115.054-33.792-181.029-33.792-205.97 0-286.427 105.399-286.427 312.174 0 210.798 87.698 312.978 291.255 312.978 57.125 0 120.686-10.459 166.546-27.355l-12.873-117.467c-43.557 16.218-93.879 25.647-146.389 25.746h-0.043c-119.077 0-156.087-43.447-156.087-192.293 0-150.455 35.401-192.293 140.8-192.293 23.333 0 45.056 2.414 64.366 8.046v205.97h119.881zM764.343 141.312h-125.513v484.352l99.767 4.827 11.264-81.262h2.414c30.574 58.734 78.043 87.698 133.559 87.698 21.723 0 40.229-3.218 53.102-7.241l-8.046-123.099c-15.879 5.1-34.146 8.042-53.1 8.046h-0.002c-65.17 0-113.445-47.47-113.445-128.731v-244.59z" />
<glyph unicode="&#xe95c;" d="M0 779.294h843.294v-843.294h-843.294z" />
<glyph unicode="&#xe95d;" d="M628.254 375.898v-266.3c-40.779-17.589-104.689-28.853-161.611-28.853-188.356 0-257.928 96.316-257.928 273.408 0 179.2 78.005 272.625 262.807 272.625 50.598 0 107.52-8.433 149.685-23.191l-14.035-122.278c-37.225 13.372-85.715 21.082-127.217 21.082-95.533 0-116.616-32.286-116.616-146.854 0-120.169 22.468-148.962 99.087-148.962 11.927 0 23.853 0.663 35.117 2.771v166.551h130.711z" />
<glyph unicode="&#xe95e;" d="M1024 779.294c0-99.801-80.905-180.706-180.706-180.706s-180.706 80.905-180.706 180.706c0 99.801 80.905 180.706 180.706 180.706s180.706-80.905 180.706-180.706z" />
<glyph unicode="&#xe95f;" glyph-name="download" d="M0 288.41h125.338v-216.218c0-7.629 0-7.731 7.782-7.731h294.502c86.682 0 173.312 0.102 259.942 0.154h198.656c7.578 0 7.68 0.102 7.731 7.578v153.805l0.154 58.061c0 1.28 0.256 2.56 0.41 4.352h129.485v-268.032c-0.256-1.638-0.666-3.226-0.768-4.864-2.202-24.422-12.851-44.493-32.102-59.904-17.203-13.773-37.12-18.995-59.136-18.944-143.667 0.154-287.386 0.051-431.053 0.051l-407.45 0.051c-7.168 0-14.387 0.256-21.402 1.536-31.488 5.734-53.658 23.501-65.382 52.838-3.789 9.472-4.557 20.122-6.707 30.208v267.059zM247.654 550.554h7.475l177.152 0.614c7.578 0 7.578 0 7.578 7.424v400.384h151.552c0.102-2.458 0.307-4.864 0.307-7.27v-369.818c0-8.141 0.205-16.23-0.051-24.32-0.205-4.966 1.536-6.451 6.605-6.451 58.522 0.205 117.094 0.102 175.667 0.154h12.544l-267.162-344.32-271.667 343.654z" />
<glyph unicode="&#xe960;" glyph-name="share" d="M640 768h-326.4s-313.6 0-313.6-320c0-249.6 192-512 192-512s-108.8 448 115.2 448h332.8v-192l384 384-384 384v-192z" />
<glyph unicode="&#xe961;" d="M0 779.294h843.294v-843.294h-843.294z" />
<glyph unicode="&#xe962;" d="M451.223 372.104v-248.471c-37.105-17.227-94.75-27.829-149.082-27.829-169.623 0-235.881 86.799-235.881 257.084 0 173.598 72.222 257.747 239.857 257.747 47.044 0 99.388-8.614 137.156-22.528l-10.601-96.738c-35.871 13.356-77.312 21.121-120.556 21.203h-0.035c-98.063 0-128.542-35.78-128.542-158.359 0-123.904 29.154-158.359 115.953-158.359 19.215 0 37.105 1.988 53.007 6.626v169.623h98.726zM629.459 105.080h-103.364v398.878l82.161 3.976 9.276-66.921h1.988c25.178 48.369 64.271 72.222 109.99 72.222 17.89 0 33.129-2.65 43.731-5.963l-6.626-101.376c-13.077 4.2-28.12 6.623-43.729 6.626h-0.002c-53.67 0-93.425-39.093-93.425-106.014v-201.427z" />
<glyph unicode="&#xe963;" d="M1024 779.294c0-99.801-80.905-180.706-180.706-180.706s-180.706 80.905-180.706 180.706c0 99.801 80.905 180.706 180.706 180.706s180.706-80.905 180.706-180.706z" />
<glyph unicode="&#xe964;" d="M1024 779.294c0-99.801-80.905-180.706-180.706-180.706s-180.706 80.905-180.706 180.706c0 99.801 80.905 180.706 180.706 180.706s180.706-80.905 180.706-180.706z" />
<glyph unicode="&#xe965;" d="M0 960h1024v-1024h-1024z" />
<glyph unicode="&#xe966;" d="M477.769 276.846h248.393l-3.511-157.989h-430.080v658.286h185.198z" />
<glyph unicode="&#xe967;" d="M0 779.294h843.294v-843.294h-843.294z" />
<glyph unicode="&#xe968;" d="M632.109 450.409c0-70.295-28.792-123.663-79.39-144.083l114.568-212.209h-171.55l-77.282 183.416h-53.368v-183.416h-146.854v527.059h200.945c141.252 0 212.932-52.706 212.932-170.767zM478.931 444.808c0 46.381-14.758 59.031-58.308 59.031h-55.597v-120.892h54.091c43.61 0 59.753 10.541 59.753 61.862z" />
<glyph unicode="&#xe969;" d="M1024 779.294c0-99.801-80.905-180.706-180.706-180.706s-180.706 80.905-180.706 180.706c0 99.801 80.905 180.706 180.706 180.706s180.706-80.905 180.706-180.706z" />
<glyph unicode="&#xe96a;" glyph-name="preview-disabled" horiz-adv-x="1707" d="M853.333-64c-314.197 0-598.613 170.667-853.333 512 254.72 341.333 539.136 512 853.333 512s598.613-170.667 853.333-512c-254.72-341.333-539.136-512-853.333-512zM853.333 813.739c-238.763 0-460.8-118.613-669.867-365.739 209.067-247.125 431.104-365.739 669.867-365.739s460.8 118.613 669.867 365.739c-209.067 247.125-431.104 365.739-669.867 365.739zM853.333 228.608c-117.76 0-213.333 98.133-213.333 219.392 0 121.173 95.573 219.392 213.333 219.392s213.333-98.133 213.333-219.392c0-121.173-95.573-219.392-213.333-219.392zM853.333 374.869c39.253 0 71.083 32.768 71.083 73.131 0.005 0.307 0.007 0.669 0.007 1.031 0 39.466-31.706 71.527-71.036 72.099l-0.054 0.001c-39.384-0.573-71.090-32.634-71.090-72.099 0-0.363 0.003-0.725 0.008-1.086l-0.001 0.055c0-40.363 31.829-73.131 71.083-73.131z" />
<glyph unicode="&#xe96b;" glyph-name="order-disabled" horiz-adv-x="1843" d="M0 960h1843.2v-204.8h-1843.2v204.8zM0 550.4h1843.2v-204.8h-1843.2v204.8zM0 140.8h1843.2v-204.8h-1843.2v204.8z" />
<glyph unicode="&#xe96c;" glyph-name="arrow-down" horiz-adv-x="1365" d="M201.387 878.649l-201.387-184.775 681.643-725.333 683.691 725.333-204.8 184.889-477.867-510.635z" />
<glyph unicode="&#xe96d;" glyph-name="arrow-up" horiz-adv-x="1365" d="M201.387-31.46l-201.387 184.775 681.643 725.333 683.691-725.333-204.8-184.889-477.867 510.635z" />
<glyph unicode="&#xe96e;" glyph-name="datepicker" d="M744.704 866.918v93.082h93.133v-93.082h186.163v-930.918h-1024v930.918h186.163v93.082h93.133v-93.082h186.163v93.082h93.082v-93.082h186.163zM744.704 773.837h-186.112v-93.133h-93.082v93.133h-186.214v-93.133h-93.133v93.133h-93.082v-744.755h837.837v744.755h-93.082v-93.133h-93.133v93.133zM186.163 610.918h186.214v-139.622h-186.214v139.622zM418.918 610.918h186.163v-139.622h-186.163v139.622zM651.622 610.918h186.214v-139.622h-186.214v139.622zM186.214 424.704h186.163v-139.622h-186.214v139.622zM418.918 424.704h186.163v-139.622h-186.163v139.622zM651.622 424.704h186.214v-139.622h-186.214v139.622zM186.214 238.541h186.163v-139.622h-186.214v139.622zM418.918 238.541h186.163v-139.622h-186.163v139.622zM651.622 238.541h186.214v-139.622h-186.214v139.622z" />
<glyph unicode="&#xe96f;" glyph-name="approve" horiz-adv-x="1138" d="M5.518 526.62c6.485 50.745 22.756 98.645 44.942 144.668 37.925 77.78 92.494 142.188 159.406 190.586l1.476 1.016c65.768 48.568 145.724 81.736 232.605 92.648l2.46 0.252c20.016 2.744 43.148 4.311 66.645 4.311 89.622 0 173.92-22.791 247.415-62.894l-2.707 1.352c9.216-4.836 10.069-9.33 4.949-17.806-9.319-14.401-24.138-39.454-38.509-64.794l-6.206-11.892c-4.494-8.135-8.818-7.168-15.815-4.21-28.388 11.776-56.32 25.429-85.618 34.076-30.081 9.060-64.65 14.276-100.436 14.276-9.801 0-19.511-0.391-29.114-1.159l1.266 0.081c-107.179-7.794-197.575-51.029-270.62-129.138-44.601-47.787-76.516-103.424-92.558-166.798-28.615-112.981-12.914-219.932 50.176-318.578 49.152-76.8 117.817-130.56 203.548-161.394 39.367-14.734 84.859-23.262 132.343-23.262 25.728 0 50.871 2.503 75.199 7.28l-2.457-0.402c95.687 17.692 174.137 64.284 236.658 137.728 39.868 46.184 68.962 102.781 82.706 165.137l0.465 2.514c5.291 24.292 7.282 49.38 9.671 74.183 0.853 9.102 2.56 12.743 12.743 12.516 29.696-0.796 59.449-0.569 89.145 0 8.59 0.171 11.776-2.162 11.435-10.98-3.982-97.849-31.232-188.302-85.447-270.336-36.042-54.403-80.557-100.006-132.184-136.143l-1.619-1.073c-46.080-31.858-96.199-55.922-150.585-71.509-42.882-13.211-92.177-20.819-143.249-20.819-2.6 0-5.195 0.020-7.785 0.059l0.392-0.005c-124.302 2.731-234.553 43.52-329.273 124.644-57.194 49.047-102.864 109.811-133.549 178.719l-1.277 3.211c-21.281 46.811-35.821 101.147-40.718 158.237l-0.128 1.848c-2.844 33.678-0.569 86.016 4.267 123.847zM283.364 540.729c16.213 15.189 32.427 30.379 48.583 45.682 8.363 7.964 16.896 15.815 24.69 24.348 5.518 5.973 9.614 5.86 15.246 0.171 54.158-54.272 108.487-108.43 162.816-162.588 8.704-8.761 17.806-17.124 26.169-26.169 6.428-6.94 11.321-6.884 18.091 0 31.289 31.858 63.033 63.317 94.72 94.834 57.060 56.889 114.233 113.607 171.292 170.496 66.56 66.389 133.12 132.836 199.623 199.339 16.27 16.27 16.27 16.327 32.427 0.284 18.66-18.432 36.864-37.319 55.979-55.296 7.111-6.713 5.689-10.98-0.284-16.839-53.305-52.907-106.496-105.927-159.687-158.948l-240.583-239.844c-50.688-50.574-101.49-101.035-152.178-151.723-6.315-6.315-11.093-10.069-19.57-1.593-91.136 91.307-182.613 182.215-273.92 273.237-0.512 0.512-0.569 1.365-0.91 2.048l-2.503 2.56z" />
<glyph unicode="&#xe970;" glyph-name="denied" d="M768 192h102.4v-256h-870.4v755.866l273.613 268.134h596.787v-256h-102.4v153.6h-429.568v-217.344h-236.032v-601.856h665.6v153.6zM816.742 506.88l115.2 115.2 61.542-61.542-115.2-115.2 115.2-115.2-61.542-61.542-115.2 115.2-115.2-115.2-61.542 61.542 115.2 115.2-115.2 115.2 61.542 61.542 115.2-115.2z" />
<glyph unicode="&#xe971;" glyph-name="publish" d="M768 192h102.4v-256h-870.4v755.866l273.613 268.134h596.787v-256h-102.4v153.6h-429.568v-217.344h-236.032v-601.856h665.6v153.6zM768 499.2v153.6l240.128-204.8-240.128-204.8v153.6h-358.4v102.4h358.4z" />
<glyph unicode="&#xe972;" glyph-name="hold" horiz-adv-x="973" d="M832.768 422.042c0 0.016 0 0.036 0 0.055 0 28.75 23.118 52.1 51.779 52.475h0.035c0.016 0 0.035 0 0.054 0 28.531 0 51.661-23.129 51.661-51.661 0-0.198-0.001-0.396-0.003-0.593v0.030c0-9.574-0.358-19.354-1.024-29.030-1.673-26.785-23.206-48.034-49.96-49.25l-0.114-0.004c-2.304-0.051-2.304-0.051-4.813 0.051-27.151 1.733-48.515 24.178-48.515 51.613 0 1.296 0.048 2.581 0.141 3.853l-0.010-0.17c0.455 6.693 0.733 14.589 0.768 22.544v0.087zM749.722 187.392c9.508 11.959 24.054 19.558 40.376 19.558 12.429 0 23.829-4.407 32.723-11.743l-0.088 0.070c22.016-18.176 25.242-50.995 7.322-73.472-5.939-7.424-12.288-14.797-18.739-22.016-9.109-10.083-22.053-16.553-36.513-17.098l-0.095-0.003c-0.57-0.023-1.239-0.036-1.91-0.036-13.473 0-25.723 5.235-34.827 13.783l0.027-0.025c-10.194 9.637-16.539 23.253-16.539 38.352 0 13.658 5.192 26.104 13.71 35.47l-0.038-0.043c5.018 5.53 9.882 11.264 14.592 17.203zM811.11 297.728c7.252 20.504 26.471 34.93 49.059 34.93 6.162 0 12.072-1.073 17.556-3.043l-0.362 0.114c26.931-9.677 40.806-39.578 31.13-66.765-4.362-12.479-7.91-21.434-11.711-30.254l1.215 3.169c-7.987-18.944-26.061-31.232-46.080-32-0.558-0.022-1.213-0.034-1.871-0.034-7.262 0-14.17 1.52-20.422 4.258l0.328-0.128c-18.613 8.276-31.358 26.603-31.358 47.908 0 7.483 1.572 14.599 4.405 21.035l-0.132-0.335c2.97 7.014 5.734 14.131 8.192 21.146zM843.725 613.12c5.223 1.963 11.259 3.099 17.56 3.099 22.442 0 41.519-14.41 48.482-34.483l0.109-0.36c3.123-9.062 6.042-18.33 8.602-27.546 1.215-4.224 1.913-9.075 1.913-14.090 0-28.288-22.23-51.384-50.173-52.772l-0.124-0.005c-0.5-0.017-1.087-0.027-1.676-0.027-23.554 0-43.408 15.841-49.488 37.451l-0.087 0.362c-2.772 9.959-5.080 17.12-7.589 24.186l0.831-2.682c-1.834 5.141-2.895 11.071-2.895 17.249 0 22.611 14.202 41.904 34.173 49.447l0.364 0.121zM759.552 729.242c8.842 7.437 20.354 11.956 32.921 11.956 16.15 0 30.558-7.463 39.962-19.128l0.077-0.098c5.99-7.424 11.776-15.155 17.254-22.989 5.965-8.445 9.534-18.952 9.534-30.292 0-17.423-8.425-32.879-21.424-42.515l-0.143-0.101c-8.401-6.276-18.991-10.048-30.462-10.048-17.277 0-32.555 8.557-41.827 21.664l-0.107 0.16c-4.975 7.087-9.379 12.922-13.954 18.615l0.54-0.695c-7.117 8.929-11.42 20.375-11.42 32.826 0 16.299 7.373 30.876 18.965 40.578l0.083 0.068zM712.96 827.546c7.987-4.915 16.026-10.24 23.859-15.667 13.491-9.646 22.18-25.26 22.18-42.902 0-28.252-22.281-51.3-50.229-52.531l-0.111-0.004c-0.597-0.025-1.297-0.039-2-0.039-10.951 0-21.093 3.466-29.389 9.361l0.157-0.106c-4.758 3.416-10.835 7.469-17.031 11.35l-1.606 0.938c-14.93 9.424-24.703 25.834-24.703 44.526 0 10.056 2.828 19.451 7.732 27.433l-0.13-0.228c14.848 24.832 46.797 32.87 71.219 17.92zM472.576 952.474l97.997-76.39c8.852-6.673 14.515-17.168 14.515-28.986 0-10.892-4.811-20.661-12.424-27.297l-0.043-0.037-92.467-84.89c-20.019-18.432-44.544-8.038-45.466 19.149l-1.178 34.765c-21.303-2.321-40.511-6.086-59.108-11.308l2.532 0.607-4.096-1.075c-1.024-0.358-1.28-0.461-1.741-0.512-115.917-33.792-209.203-124.416-248.013-240.435l-0.922-2.714c-0.2-0.348-0.917-2.563-1.604-4.792l-0.495-1.864-0.614-1.894c-10.059-32.375-15.853-69.597-15.853-108.171 0-45.234 7.967-88.607 22.574-128.793l-0.833 2.622 1.894-5.12 0.41-1.126c54.886-144.998 194.56-240.384 349.952-234.701 13.824 0.512 27.443 1.741 39.424 3.482l0.512 0.154c42.168 6.349 80.16 19.101 114.81 37.346l-1.965-0.943c6.864 3.649 15.008 5.791 23.653 5.791 20.118 0 37.525-11.603 45.896-28.481l0.134-0.298c3.409-6.798 5.406-14.812 5.406-23.293 0-20.276-11.409-37.887-28.158-46.763l-0.287-0.139c-61.731-32.699-134.948-51.896-212.648-51.896-21.171 0-42.009 1.425-62.423 4.185l2.38-0.263c-0.614 0-0.614 0-2.56 0.256-109.771 15.134-205.23 67.293-275.271 143.249l-0.287 0.316-1.741 1.741c-6.027 6.527-12.137 13.562-18.033 20.779l-0.655 0.827-0.922 1.229c-59 72.551-96.998 164.303-103.555 264.634l-0.073 1.401v0.41c-0.154 0.819-0.154 0.819-0.256 2.304-0.573 8.53-0.925 18.606-0.972 28.755v0.121c0 1.946 0 2.048 0.102 3.174 0.151 112.64 39.049 216.167 104.077 297.996l-0.756-0.985 2.611 3.072c-1.024-1.024-1.024-1.024-1.536-1.69 7.68 9.728 15.667 19.046 24.013 28.006 79.872 86.477 186.214 139.059 301.414 149.606l-1.229 36.147c-0.922 26.982 22.528 39.373 43.878 22.733zM724.48 328.858l-43.93-88.269-276.634 137.626v266.752h99.635v-206.182l220.877-109.926z" />
<glyph unicode="&#xe973;" glyph-name="radiobutton-readonly_no_checked" d="M1024 448c0-282.77-229.23-512-512-512s-512 229.23-512 512c0 282.77 229.23 512 512 512s512-229.23 512-512z" />
<glyph unicode="&#xe974;" glyph-name="image" horiz-adv-x="1280" d="M0 960v-1024h1280v1024h-1280zM1200 14.72h-1120v866.56h1120v-866.56zM880 684.288c0-65.28 53.76-118.144 120-118.144 66.304 0 120 52.928 120 118.144 0 65.28-53.76 118.144-120 118.144-66.304 0-120-52.864-120-118.144zM1120 93.568h-960l240 630.144 320-393.856 160 118.144 240-354.432z" />
<glyph unicode="&#xe975;" glyph-name="attach" horiz-adv-x="585" d="M257.84 643.014l-76.856 1.827 1.31-384.313c1.517-63.65 54.444-116.576 118.094-118.094 29.139-0.991 58.513 9.605 80.691 31.782s32.773 51.552 31.786 80.606l-0.003 0.085-3.172 461.203c-2.552 106.129-90.682 194.26-196.811 196.811-48.572 1.663-97.539-15.992-134.507-52.96s-54.623-85.935-52.965-134.364l0.006-0.143 3.724-485.27c3.586-148.057 126.472-270.943 274.494-274.494 147.953-3.62 265.047 113.473 261.461 261.461l-0.034 1v330.524l-76.821 1.793-0.034-331.455c1.588-48.29-15.999-96.957-52.755-133.713s-85.423-54.343-133.576-52.76l-0.137 0.005c-105.37 2.552-193.191 90.372-195.742 195.742-0.006 0.349-0.006 0.686 0 1.023v0.012l-3.793 484.235c-0.973 29.142 9.633 58.514 31.813 80.694s51.553 32.786 80.611 31.817l0.084-0.003c63.581-1.586 116.542-54.547 118.094-118.094l3.172-461.203c0.327-9.718-3.208-19.514-10.604-26.91s-17.192-10.932-26.882-10.605l-0.028 0.001c-9.936 0.342-19.803 4.319-27.413 11.928s-11.586 17.477-11.93 27.445l0.001-0.032-1.31 384.382z" />
<glyph unicode="&#xe976;" glyph-name="draft" horiz-adv-x="870" d="M406.016 960h80.384v-126.464h-80.384v126.464zM332.8 960v-130.662l-29.286-39.219-90.522 92.57 55.808 77.312h64zM577.434 960h85.299v-126.464h-85.299v126.464zM753.766 960h91.034v-113.715h-91.034v113.715zM844.8 761.498v-92.928h-114.483v92.928h114.483zM844.8 587.622v-102.246h-114.483v102.246h114.483zM844.8 401.459v-90.112h-114.483v90.112h114.483zM844.8 232.192v-97.536h-114.483v97.536h114.483zM844.8 45.773v-109.773h-112.026v109.773h112.026zM641.741-64h-69.99v122.368h69.99v-122.368zM480.717-64h-82.637v122.368h82.637v-122.368zM156.672 804.71l89.395-91.443-62.208-83.251-88.218 90.214 61.030 84.48zM45.568 650.854l88.32-90.368v-65.946h-108.288v128.614l19.968 27.648zM25.6 401.408h108.339v-81.664h-108.339v81.664zM25.6 226.662h108.339v-84.48h-108.339v84.48zM25.6 58.317h108.902v-122.317h-108.902v122.368zM307.046-64h-81.51v122.368h81.51v-122.368z" />
<glyph unicode="&#xe977;" glyph-name="notification" horiz-adv-x="970" d="M323.368 10.361c-66.091 38.157-90.092 120.221-53.558 183.391l239.159-138.078c-36.487-63.197-119.51-83.47-185.6-45.313zM774.26 144.591l38.807-148.363-27.271-47.234-746.787 431.158 27.271 47.234 147.89 40.574 136.327 236.125c83.833 145.203 230.101 222.311 382.362 177.218l18.54 32.112c22.636 39.206 72.178 52.797 110.917 30.43s51.741-72.066 29.105-111.273l-18.54-32.112c115.182-109.316 121.539-274.541 37.706-419.745l-136.354-236.172z" />
<glyph unicode="&#xe978;" glyph-name="no-notifications" horiz-adv-x="819" d="M409.6-64c-72.499 0-131.226 56.166-131.174 125.44h262.349c0-69.274-58.675-125.44-131.174-125.44zM716.8 260.608l102.4-103.629v-51.814h-819.2v51.814l102.4 103.629v259.072c0 159.232 83.712 292.147 230.4 327.373v35.226c0 43.008 34.304 77.722 76.8 77.722s76.8-34.714 76.8-77.722v-35.226c146.688-35.226 230.4-168.090 230.4-327.424v-259.072z" />
<glyph unicode="&#xe979;" glyph-name="module_navigation" horiz-adv-x="1463" d="M0 923.429h1462.857v-219.429h-1462.857v219.429zM365.714 557.714h1097.143v-219.429h-1097.143v219.429zM0 557.714h219.429v-219.429h-219.429v219.429zM365.714 192h1097.143v-219.429h-1097.143v219.429zM0 192h219.429v-219.429h-219.429v219.429z" />
<glyph unicode="&#xe97a;" glyph-name="module_news" horiz-adv-x="922" d="M364.032 857.6v-217.344h-236.032v-601.856h665.6v819.2h-429.568zM299.213 960h596.787v-1024h-870.4v755.866l273.613 268.134z" />
<glyph unicode="&#xe97b;" horiz-adv-x="1205" d="M0 634.182h775.758v-31.030h-775.758zM0 572.121h672.323v-31.030h-672.323zM0 510.061h775.758v-31.030h-775.758zM0 91.152h775.758v-31.030h-775.758zM0 29.091h724.040v-31.030h-724.040zM0-32.97h749.899v-31.030h-749.899zM0 727.273h667.152v-56.889h-667.152z" />
<glyph unicode="&#xe97c;" horiz-adv-x="1205" d="M0 960h175.838v-72.404h-175.838zM0 856.566h1205.010v-72.404h-1205.010zM894.707 742.788h310.303v-465.455h-310.303zM894.707 256.646h310.303v-320.646h-310.303z" />
<glyph unicode="&#xe97d;" horiz-adv-x="1205" d="M155.152 422.141h449.939v-268.929h-449.939z" />
<glyph unicode="&#xe97e;" horiz-adv-x="1205" d="M0 960h175.838v-72.404h-175.838zM0 742.788h408.566v-279.273h-408.566zM0 401.455h408.566v-279.273h-408.566zM449.939 401.455h408.566v-98.263h-408.566zM449.939 277.333h408.566v-98.263h-408.566zM449.939 158.384h408.566v-98.263h-408.566zM449.939 34.263h408.566v-98.263h-408.566z" />
<glyph unicode="&#xe97f;" horiz-adv-x="1205" d="M0 856.566h1205.010v-72.404h-1205.010z" />
<glyph unicode="&#xe980;" horiz-adv-x="1205" d="M444.768 742.788h413.737v-31.030h-413.737zM444.768 680.727h413.737v-31.030h-413.737zM444.768 618.667h413.737v-31.030h-413.737zM444.768 556.606h413.737v-31.030h-413.737zM444.768 494.545h310.303v-31.030h-310.303z" />
<glyph unicode="&#xe981;" horiz-adv-x="1205" d="M0 91.152h413.737v-31.030h-413.737zM0 29.091h413.737v-31.030h-413.737zM0-32.97h310.303v-31.030h-310.303zM894.707 742.788h310.303v-465.455h-310.303zM894.707 256.646h310.303v-320.646h-310.303z" />
<glyph unicode="&#xe982;" glyph-name="camera" d="M303.616 385.69c0-112.896 93.030-204.442 207.718-204.442 114.739 0 207.77 91.546 207.77 204.442 0 112.947-93.030 204.493-207.718 204.493-114.739 0-207.77-91.546-207.77-204.493zM958.822 731.802h-223.744c-15.974 62.822-31.949 125.798-95.898 125.798h-255.642c-63.949 0-79.923-62.925-95.898-125.85h-223.744c-35.123 0-63.898-28.262-63.898-62.925v-566.272c0-34.56 28.774-62.874 63.898-62.874h894.925c35.123 0 63.898 28.314 63.898 62.874v566.272c0 34.611-28.774 62.976-63.898 62.976zM511.334 106.496c-156.672 0-283.648 125.030-283.648 279.194 0 154.214 126.976 279.245 283.648 279.245s283.648-125.030 283.648-279.245c0-154.163-126.976-279.194-283.648-279.194zM958.822 543.027h-127.846v62.874h127.846v-62.874z" />
<glyph unicode="&#xe983;" glyph-name="location" d="M747.613 325.585c156.765-30.115 276.387-92.16 276.387-184.087 0-134.935-257.583-205.498-512-205.498s-512 70.563-512 205.452c0 91.927 119.622 153.972 276.387 184.18 16.012-26.298 33.42-53.713 52.317-82.153-158.86-24.25-240.175-76.195-240.175-102.028 0-34.397 144.105-115.060 423.471-115.060s423.424 80.663 423.424 115.060c0 25.833-81.268 77.777-240.081 102.028 18.851 28.439 36.305 55.855 52.271 82.153zM512 150.063c-23.040 0-44.684 11.171-58.368 30.161-87.087 121.344-241.105 353.094-241.105 474.159 0.047 168.774 134.097 305.617 299.473 305.617s299.427-136.844 299.427-305.664c0-121.111-154.065-352.815-241.105-474.159-13.124-18.307-34.316-30.107-58.266-30.161h-0.009zM387.444 660.34c0-70.237 55.761-127.116 124.556-127.069 68.794 0 124.556 56.879 124.556 127.069 0 70.237-55.761 127.162-124.556 127.162s-124.556-56.925-124.556-127.162z" />
<glyph unicode="&#xe984;" glyph-name="logout" d="M615.375 97.207v-112.445h-615.375v926.476h615.375v-112.445h-501.077v-701.586h501.077zM698.417 728.381l283.794-280.381-283.746-280.381-92.696 91.185 122.344 120.344h-506.1v137.704h506.1l-122.344 120.344 92.696 91.185z" />
<glyph unicode="&#xe985;" glyph-name="profile" d="M512 459.213c-112.282 0-203.264 112.128-203.264 250.368 0 138.291 29.798 250.419 203.264 250.419 173.414 0 203.315-112.128 203.315-250.368 0-138.342-91.034-250.419-203.264-250.419zM895.59 86.989c0.205-15.411 0.358-18.074 0.41-16.691v-18.739s-56.525-115.558-384-115.558c-327.424 0-384 115.558-384 115.558v25.293c0.051-2.202 0.205-1.229 0.563 17.92 4.352 234.598 37.274 302.234 272.128 345.19 0 0 33.434-43.162 111.309-43.162 77.926 0 111.36 43.162 111.36 43.162 237.414-43.418 268.442-112.077 272.23-352.973z" />
<glyph unicode="&#xe986;" glyph-name="restore" d="M479.283 602.061c46.899 0 93.747 0.666 140.646-0.154 76.186-1.382 140.8-28.877 191.59-84.89 25.067-27.528 42.936-62.032 50.372-100.264l0.213-1.316c2.932-13.34 4.611-28.663 4.611-44.378 0-17.772-2.148-35.042-6.198-51.565l0.307 1.48c-15.206-62.259-50.176-111.514-105.984-145.92-33.812-21.525-75.016-34.306-119.205-34.306-0.356 0-0.712 0.001-1.067 0.002h0.055c-38.912 0.102-77.824 0.154-116.736-0.154-7.322-0.102-15.36-0.666-21.914-3.533-14.541-6.246-23.091-17.613-23.194-33.741-0.102-25.805 0.358-51.661 0-77.466-0.358-19.712 16.486-38.144 40.141-37.99 43.366 0.256 86.784-0.717 130.099 0.358 62.676 1.432 121.257 17.635 172.813 45.245l-2.061-1.008c60.928 31.994 110.887 77.461 147.261 132.671l0.912 1.473c22.172 33.249 39.558 71.943 49.987 113.4l0.547 2.568c6.899 26.559 10.859 57.049 10.859 88.464 0 14.616-0.857 29.032-2.524 43.2l0.165-1.719c-9.267 81.203-41.472 152.576-98.406 212.838-43.392 45.888-97.139 81.521-157.535 103.205l-2.823 0.885c-36.659 13.107-74.445 22.323-113.613 23.347-50.79 1.28-101.632 1.536-152.474 1.792-25.891 0.109-56.535 0.171-87.194 0.171s-61.303-0.062-91.932-0.186l4.739 0.015c-6.554 0-8.499 2.253-8.499 8.448 0.205 42.496 0.051 84.992 0.256 127.488 0 7.424-1.434 13.568-9.011 16.947-7.014 3.174-12.442 0.205-17.92-3.942-53.197-40.499-106.496-80.896-159.693-121.344l-119.091-90.624c-10.445-7.936-10.291-18.074 0.41-26.214l203.827-154.112c24.986-18.944 49.971-37.837 74.803-56.832 5.837-4.506 11.725-7.987 19.2-4.608 7.731 3.482 9.216 10.086 9.165 17.715-0.614 41.114-1.024 82.227-1.536 123.392-0.102 11.162-0.051 11.162 11.674 11.162h154.010z" />
<glyph unicode="&#xe987;" glyph-name="setting" d="M608.256-64l42.906 132.659 1.712 0.827c11.779 6.239 23.115 13.203 32.951 20.165l4.096 2.714 112.794-53.965 135.68 136.192-53.606 115.046-1.086-2.361c6.294 12.415 11.982 25.191 17.982 41.12l122.317 42.854v193.075l-122.573 42.496c-5.274 13.466-11.52 26.266-17.715 38.4l54.272 114.432-136.038 135.322-115.2-57.549c-12.749 5.171-25.395 8.909-37.786 12.493l-42.342 110.080h-190.157l-42.035-109.056-3.891-0.768c-10.598-2.15-22.17-4.454-34.15-8.653l-116.070 55.45-135.578-136.192 53.76-115.046 1.080 2.365c-6.266-12.435-11.922-25.23-17.874-41.175l-121.702-42.701v-192.87l121.907-43.213 1.015-2.881c5.277-13.223 11.196-26.121 16.598-36.287l-54.221-115.405 134.656-137.472 113.818 51.712-1.871 1.031c12.185-7.25 24.78-13.882 40.271-20.897l42.65-131.942h193.434zM472.115 14.797l-37.12 114.893-19.61 6.042c-14.285 4.403-30.208 13.466-45.67 22.221-5.12 2.918-10.24 5.837-15.206 8.55l-17.254 9.421-99.635-45.261-57.754 58.982 47.616 101.325-9.267 17.408c-10.752 20.070-21.453 41.472-27.546 61.798l-5.734 19.2-106.138 37.632v81.408l106.189 37.222 5.683 19.251c5.427 18.125 14.029 38.298 26.419 61.542l9.216 17.408-46.899 100.403 57.344 57.6 99.84-47.77 17.562 9.523c8.704 4.71 19.456 6.861 31.949 9.37 8.755 1.792 18.739 3.789 29.133 6.912l18.33 5.632 36.966 95.744h82.022l36.864-95.744 18.33-5.632 16.282-4.762c16.947-4.864 31.59-9.062 44.544-16.026l18.022-9.779 99.891 49.92 56.422-56.115-47.309-99.789 9.267-17.459c10.752-20.275 21.914-41.216 27.955-61.338l5.786-19.302 106.598-36.966v-81.152l-106.65-37.376-5.734-19.2c-5.376-18.074-13.824-37.632-26.624-61.491l-9.216-17.357 46.797-100.454-57.446-57.651-100.045 47.821-17.664-9.728c-9.216-5.018-18.022-10.854-26.47-16.538-12.134-8.090-24.678-16.384-34.406-19.456l-19.558-5.99-37.222-114.893h-78.848zM521.523 278.682c0.036 0 0.078 0 0.12 0 72.871 0 136.235 40.704 168.595 100.617l0.501 1.015-69.53 37.069c8.583-15.543 13.634-34.073 13.634-53.783 0-62.351-50.545-112.896-112.896-112.896s-112.896 50.545-112.896 112.896c0 19.383 4.885 37.625 13.49 53.562l-0.296-0.599-69.222-37.632c33.119-60.163 96.101-100.25 168.446-100.25 0.001 0 0.002 0 0.002 0v0zM629.299 503.859l75.264 23.398c-24.717 78.681-96.991 134.76-182.363 134.76-0.238 0-0.476 0-0.714-0.001h0.037c-0.216 0.001-0.472 0.001-0.728 0.001-85.372 0-157.647-56.078-181.996-133.408l-0.367-1.351 75.264-23.398c14.587 46.34 57.168 79.361 107.46 79.361 0.129 0 0.258 0 0.387-0.001h-0.020c49.664 0 93.030-31.898 107.776-79.36z" />
<glyph unicode="&#xe988;" glyph-name="liked" horiz-adv-x="1138" d="M0-62.009h206.848v613.262h-206.848v-613.262zM1137.778 500.053c0 56.263-46.535 102.229-103.424 102.229h-325.803l51.712 235.065v15.36c0 20.423-10.354 40.846-20.708 56.206l-56.889 51.086-341.333-337.237c-20.708-15.36-31.004-40.903-31.004-71.566v-510.976c0-56.206 46.535-102.229 103.424-102.229h465.465c41.358 0 77.54 25.6 93.070 61.326l155.136 362.837c5.177 10.24 5.177 25.543 5.177 35.726v102.229h5.177c0-5.12 0 0 0 0z" />
<glyph unicode="&#xe989;" glyph-name="comment" d="M1024 857.6c0 56.32-46.080 102.4-102.4 102.4h-819.2c-56.32 0-102.4-46.080-102.4-102.4v-614.4c0-56.32 46.080-102.4 102.4-102.4h716.8l204.8-204.8v921.6zM819.2 345.6h-614.4v102.4h614.4v-102.4zM819.2 499.2h-614.4v102.4h614.4v-102.4zM819.2 652.8h-614.4v102.4h614.4v-102.4z" />
<glyph unicode="&#xe98a;" glyph-name="view" horiz-adv-x="1707" d="M853.333-64c-314.197 0-598.613 170.667-853.333 512 254.72 341.333 539.136 512 853.333 512s598.613-170.667 853.333-512c-254.72-341.333-539.136-512-853.333-512zM853.333 145.664c162.304 0 293.973 135.339 293.973 302.336s-131.669 302.336-293.973 302.336-293.973-135.339-293.973-302.336 131.669-302.336 293.973-302.336zM853.333 261.888c-101.205 0-183.296 83.285-183.296 186.112s82.091 186.112 183.296 186.112c101.205 0 183.296-83.285 183.296-186.112s-82.091-186.112-183.296-186.112z" />
<glyph unicode="&#xe98b;" glyph-name="favorite-categories" horiz-adv-x="975" d="M877.714 716.19v99.084h-780.19v-99.084h780.19zM877.714 618.667h-780.19v-583.582h780.19v583.582zM0 912.798h975.238v-975.238h-975.238v975.238zM487.619 230.132l-100.645-52.907c-1.049-0.56-2.294-0.889-3.616-0.889-4.309 0-7.802 3.493-7.802 7.802 0 0.452 0.038 0.894 0.112 1.325l-0.007-0.046 19.212 112.104-81.432 79.384c-1.455 1.419-2.358 3.398-2.358 5.589 0 3.919 2.89 7.164 6.655 7.718l0.042 0.005 112.494 16.335 50.371 101.961c1.311 2.572 3.94 4.302 6.973 4.302s5.662-1.731 6.952-4.258l0.020-0.044 50.371-101.961 112.494-16.335c3.828-0.541 6.74-3.795 6.74-7.729 0-2.187-0.9-4.165-2.35-5.581l-0.002-0.001-81.432-79.384 19.163-112.104c0.067-0.384 0.106-0.827 0.106-1.279 0-4.309-3.493-7.802-7.802-7.802-1.322 0-2.567 0.329-3.659 0.909l0.042-0.020-100.645 52.907z" />
</font>
</defs>
</svg>
